<?xml version="1.0" encoding="UTF-8" standalone="no"?>
<svg
   xmlns:dc="http://purl.org/dc/elements/1.1/"
   xmlns:cc="http://creativecommons.org/ns#"
   xmlns:rdf="http://www.w3.org/1999/02/22-rdf-syntax-ns#"
   xmlns:svg="http://www.w3.org/2000/svg"
   xmlns="http://www.w3.org/2000/svg"
   xmlns:sodipodi="http://sodipodi.sourceforge.net/DTD/sodipodi-0.dtd"
   xmlns:inkscape="http://www.inkscape.org/namespaces/inkscape"
   width="447.30518pt"
   height="558.90436pt"
   version="1.1"
   viewBox="0 0 447.30518 558.90436"
   id="svg163"
   sodipodi:docname="noun-tree-1013197.svg"
   inkscape:version="0.92.4 (5da689c313, 2019-01-14)">
  <metadata
     id="metadata167">
    <rdf:RDF>
      <cc:Work
         rdf:about="">
        <dc:format>image/svg+xml</dc:format>
        <dc:type
           rdf:resource="http://purl.org/dc/dcmitype/StillImage" />
      </cc:Work>
    </rdf:RDF>
  </metadata>
  <sodipodi:namedview
     pagecolor="#ffffff"
     bordercolor="#666666"
     borderopacity="1"
     objecttolerance="10"
     gridtolerance="10"
     guidetolerance="10"
     inkscape:pageopacity="0"
     inkscape:pageshadow="2"
     inkscape:window-width="1920"
     inkscape:window-height="1017"
     id="namedview165"
     showgrid="false"
     inkscape:zoom="0.50571429"
     inkscape:cx="413.07519"
     inkscape:cy="403.58071"
     inkscape:window-x="-8"
     inkscape:window-y="-8"
     inkscape:window-maximized="1"
     inkscape:current-layer="g161" />
  <defs
     id="defs71">
    <symbol
       id="w"
       overflow="visible"
       style="overflow:visible">
      <path
         d="M 11.438,-0.6875 C 10.85206,-0.375 10.2388,-0.14453 9.5942,0 c -0.63672,0.15625 -1.3047,0.23438 -2,0.23438 -2.0742,0 -3.7188,-0.57812 -4.9375,-1.7344 -1.2109,-1.1562 -1.8125,-2.7266 -1.8125,-4.7188 0,-1.9883 0.60156,-3.5625 1.8125,-4.7188 1.2188,-1.1562 2.8633,-1.7344 4.9375,-1.7344 0.69531,0 1.3633,0.07813 2,0.23438 0.64453,0.15625 1.2578,0.38672 1.8438,0.6875 v 2.5781 c -0.59375,-0.40625 -1.1836,-0.70312 -1.7656,-0.89062 -0.57422,-0.1875 -1.1797,-0.28125 -1.8125,-0.28125 -1.1484,0 -2.0469,0.37109 -2.7031,1.1094 -0.65625,0.73047 -0.98438,1.7344 -0.98438,3.0156 0,1.293 0.32812,2.3086 0.98438,3.0469 0.65625,0.73047 1.5547,1.0938 2.7031,1.0938 0.63281,0 1.2383,-0.09375 1.8125,-0.28125 0.58203,-0.19531 1.1719,-0.5 1.7656,-0.90625 z"
         id="path2"
         inkscape:connector-curvature="0" />
    </symbol>
    <symbol
       id="b"
       overflow="visible"
       style="overflow:visible">
      <path
         d="M 8.375,-6.7969 C 8.11328,-6.9219 7.85156,-7.00784 7.59375,-7.06252 7.33203,-7.12502 7.07031,-7.15627 6.8125,-7.15627 c -0.77344,0 -1.3672,0.25 -1.7812,0.75 -0.40625,0.49219 -0.60938,1.1953 -0.60938,2.1094 V 3e-5 h -2.9844 v -9.3438 h 2.9844 v 1.5312 c 0.38281,-0.60156 0.82031,-1.0469 1.3125,-1.3281 0.5,-0.28125 1.0977,-0.42188 1.7969,-0.42188 0.10156,0 0.21094,0.00781 0.32812,0.015625 0.11328,0 0.28125,0.015625 0.5,0.046875 z"
         id="path5"
         inkscape:connector-curvature="0" />
    </symbol>
    <symbol
       id="a"
       overflow="visible"
       style="overflow:visible">
      <path
         d="m 10.75,-4.6875 v 0.84375 H 3.7812 c 0.070312,0.69922 0.32031,1.2266 0.75,1.5781 0.4375,0.34375 1.0469,0.51562 1.8281,0.51562 0.625,0 1.2656,-0.085938 1.9219,-0.26562 0.65625,-0.1875 1.332,-0.47266 2.0312,-0.85938 v 2.3125 C 9.60146,-0.30081 8.8944,-0.10159 8.1874,0.03122 7.48818,0.16403 6.7851,0.23434 6.078,0.23434 c -1.6875,0 -3,-0.42578 -3.9375,-1.2812 -0.9375,-0.85156 -1.4062,-2.0547 -1.4062,-3.6094 0,-1.5312 0.45703,-2.7266 1.375,-3.5938 0.92578,-0.875 2.1914,-1.3125 3.7969,-1.3125 1.4688,0 2.6406,0.44531 3.5156,1.3281 0.88281,0.88672 1.3281,2.0703 1.3281,3.5469 z m -3.0625,-1 c 0,-0.5625 -0.16797,-1.0156 -0.5,-1.3594 -0.32422,-0.35156 -0.75781,-0.53125 -1.2969,-0.53125 -0.57422,0 -1.043,0.16406 -1.4062,0.48438 -0.36719,0.32422 -0.58984,0.79297 -0.67188,1.4062 z"
         id="path8"
         inkscape:connector-curvature="0" />
    </symbol>
    <symbol
       id="f"
       overflow="visible"
       style="overflow:visible">
      <path
         d="m 5.625,-4.2031 c -0.625,0 -1.0938,0.10938 -1.4062,0.32812 -0.3125,0.21094 -0.46875,0.51562 -0.46875,0.92188 0,0.375 0.125,0.67188 0.375,0.89062 0.25,0.21094 0.59766,0.3125 1.0469,0.3125 0.5625,0 1.0352,-0.19531 1.4219,-0.59375 0.38281,-0.40625 0.57812,-0.91016 0.57812,-1.5156 v -0.34375 z m 4.5625,-1.125 V 0 H 7.1719 v -1.3906 c -0.39844,0.57422 -0.85156,0.99219 -1.3594,1.25 -0.5,0.25 -1.1055,0.375 -1.8125,0.375 -0.96875,0 -1.7578,-0.28125 -2.3594,-0.84375 -0.60547,-0.5625 -0.90625,-1.2891 -0.90625,-2.1875 0,-1.0938 0.375,-1.8945 1.125,-2.4062 0.75781,-0.51953 1.9414,-0.78125 3.5469,-0.78125 h 1.7656 v -0.23438 c 0,-0.46875 -0.1875,-0.8125 -0.5625,-1.0312 -0.375,-0.2187 -0.95312,-0.32812 -1.7344,-0.32812 -0.64844,0 -1.2461,0.0625 -1.7969,0.1875 -0.54297,0.125 -1.0547,0.32031 -1.5312,0.57812 v -2.2812 c 0.64453,-0.15625 1.2852,-0.26953 1.9219,-0.34375 0.64453,-0.082031 1.2891,-0.125 1.9375,-0.125 1.6875,0 2.9062,0.33594 3.6562,1 0.75,0.65625 1.125,1.7344 1.125,3.2344 z"
         id="path11"
         inkscape:connector-curvature="0" />
    </symbol>
    <symbol
       id="c"
       overflow="visible"
       style="overflow:visible">
      <path
         d="m 4.6875,-11.984 v 2.6406 h 3.0781 v 2.1406 H 4.6875 v 3.9531 c 0,0.4375 0.085938,0.73438 0.26562,0.89062 0.17578,0.14844 0.51953,0.21875 1.0312,0.21875 h 1.5312 v 2.1406 h -2.5625 c -1.1797,0 -2.0156,-0.24219 -2.5156,-0.73438 -0.49219,-0.48828 -0.73438,-1.3281 -0.73438,-2.5156 v -3.9531 h -1.4844 v -2.1406 h 1.4844 v -2.6406 z"
         id="path14"
         inkscape:connector-curvature="0" />
    </symbol>
    <symbol
       id="e"
       overflow="visible"
       style="overflow:visible">
      <path
         d="m 7.7812,-7.9688 v -5 h 3.0156 V 2e-4 H 7.7812 v -1.3438 c -0.40625,0.54297 -0.85938,0.94531 -1.3594,1.2031 -0.49219,0.25 -1.0586,0.375 -1.7031,0.375 -1.1562,0 -2.1055,-0.45312 -2.8438,-1.3594 -0.74219,-0.91406 -1.1094,-2.0938 -1.1094,-3.5312 0,-1.4453 0.36719,-2.625 1.1094,-3.5312 0.73828,-0.91406 1.6875,-1.375 2.8438,-1.375 0.63281,0 1.2031,0.13281 1.7031,0.39062 0.5,0.25 0.95312,0.65234 1.3594,1.2031 z m -1.9531,6.0469 c 0.63281,0 1.1172,-0.23438 1.4531,-0.70312 0.33203,-0.46875 0.5,-1.1445 0.5,-2.0312 0,-0.89453 -0.16797,-1.5703 -0.5,-2.0312 -0.33594,-0.46875 -0.82031,-0.70312 -1.4531,-0.70312 -0.63672,0 -1.125,0.23438 -1.4688,0.70312 -0.33594,0.46094 -0.5,1.1367 -0.5,2.0312 0,0.88672 0.16406,1.5625 0.5,2.0312 0.34375,0.46875 0.83203,0.70312 1.4688,0.70312 z"
         id="path17"
         inkscape:connector-curvature="0" />
    </symbol>
    <symbol
       id="k"
       overflow="visible"
       style="overflow:visible">
      <path
         d="m 6.4062,-1.9219 c 0.63281,0 1.1172,-0.23438 1.4531,-0.70312 0.34375,-0.46875 0.51562,-1.1445 0.51562,-2.0312 0,-0.89453 -0.17188,-1.5703 -0.51562,-2.0312 -0.33594,-0.46875 -0.82031,-0.70312 -1.4531,-0.70312 -0.63672,0 -1.125,0.23438 -1.4688,0.70312 -0.3438,0.46874 -0.51562,1.1484 -0.51562,2.0312 0,0.88672 0.17188,1.5625 0.51562,2.0312 0.34374,0.4687 0.83203,0.70312 1.4688,0.70312 z M 4.4218,-7.9688 c 0.40625,-0.55078 0.85938,-0.95312 1.3594,-1.2031 0.5,-0.25781 1.0781,-0.39062 1.7344,-0.39062 1.1445,0 2.0859,0.46094 2.8281,1.375 0.73828,0.90625 1.1094,2.0859 1.1094,3.5312 0,1.4375 -0.37109,2.6172 -1.1094,3.5312 -0.74219,0.90625 -1.6836,1.3594 -2.8281,1.3594 -0.65625,0 -1.2344,-0.125 -1.7344,-0.375 -0.5,-0.25781 -0.95312,-0.66016 -1.3594,-1.2031 V -2e-5 H 1.4374 v -12.969 h 2.9844 z"
         id="path20"
         inkscape:connector-curvature="0" />
    </symbol>
    <symbol
       id="j"
       overflow="visible"
       style="overflow:visible">
      <path
         d="m 0.20312,-9.3438 h 2.9844 L 5.70312,-3 7.84372,-9.3438 h 2.9844 L 6.89062,0.8902 C 6.49218,1.9214 6.03515,2.6441 5.51562,3.0621 4.99218,3.47616 4.30082,3.6871 3.43752,3.6871 H 1.70312 V 1.7183 h 0.9375 c 0.50781,0 0.87891,-0.078125 1.1094,-0.23438 0.22656,-0.15625 0.40625,-0.44922 0.53125,-0.875 l 0.09375,-0.25 z"
         id="path23"
         inkscape:connector-curvature="0" />
    </symbol>
    <symbol
       id="i"
       overflow="visible"
       style="overflow:visible">
      <path
         d="M 9.125,-2.2656 H 4.1094 L 3.31252,0 h -3.2344 l 4.6094,-12.453 h 3.8281 L 13.14062,0 H 9.90622 Z M 4.9062,-4.5781 H 8.3124 L 6.6093,-9.5312 Z"
         id="path26"
         inkscape:connector-curvature="0" />
    </symbol>
    <symbol
       id="v"
       overflow="visible"
       style="overflow:visible">
      <path
         d="M 1.4375,-12.969 H 4.4219 V 0 H 1.4375 Z"
         id="path29"
         inkscape:connector-curvature="0" />
    </symbol>
    <symbol
       id="u"
       overflow="visible"
       style="overflow:visible">
      <path
         d="m 1.4375,-12.969 h 2.9844 v 7.0625 L 7.8594,-9.344 h 3.4688 L 6.7657,-5.0471 11.6876,-2e-4 H 8.0626 L 4.422,-3.8908 V -2e-4 H 1.4376 Z"
         id="path32"
         inkscape:connector-curvature="0" />
    </symbol>
    <symbol
       id="t"
       overflow="visible"
       style="overflow:visible">
      <path
         d="m 8.7344,-9.0469 v 2.2656 C 8.08596,-7.05083 7.4688,-7.25005 6.875,-7.37505 6.28125,-7.50786 5.7188,-7.57817 5.1875,-7.57817 c -0.5625,0 -0.98438,0.074219 -1.2656,0.21875 -0.27344,0.13672 -0.40625,0.35156 -0.40625,0.64062 0,0.24219 0.10156,0.42969 0.3125,0.5625 0.20703,0.125 0.58203,0.21875 1.125,0.28125 l 0.53125,0.078125 c 1.5195,0.1875 2.5469,0.50781 3.0781,0.95312 0.53125,0.44922 0.79688,1.1484 0.79688,2.0938 0,0.99219 -0.37109,1.7344 -1.1094,2.2344 -0.73047,0.5 -1.8242,0.75 -3.2812,0.75 -0.61719,0 -1.2578,-0.046875 -1.9219,-0.14062 -0.65625,-0.09375 -1.3281,-0.23828 -2.0156,-0.4375 v -2.2656 c 0.59375,0.29297 1.2031,0.51172 1.8281,0.65625 0.625,0.13672 1.2578,0.20312 1.9062,0.20312 0.58203,0 1.0195,-0.078125 1.3125,-0.23438 0.28906,-0.15625 0.4375,-0.39453 0.4375,-0.71875 0,-0.26953 -0.10547,-0.46875 -0.3125,-0.59375 -0.19922,-0.13281 -0.60156,-0.23828 -1.2031,-0.3125 l -0.51562,-0.0625 c -1.3359,-0.16406 -2.2656,-0.47266 -2.7969,-0.92188 -0.53125,-0.44531 -0.79688,-1.1289 -0.79688,-2.0469 0,-0.98828 0.33594,-1.7227 1.0156,-2.2031 0.67578,-0.47656 1.7109,-0.71875 3.1094,-0.71875 0.55078,0 1.1289,0.042969 1.7344,0.125 0.60156,0.085938 1.2656,0.21484 1.9844,0.39062 z"
         id="path35"
         inkscape:connector-curvature="0" />
    </symbol>
    <symbol
       id="h"
       overflow="visible"
       style="overflow:visible">
      <path
         d="M 10.828,-5.6875 V 0 h -3 V -4.3594 C 7.828,-5.16018 7.804563,-5.711 7.7655,-6.0156 7.73425,-6.3281 7.67175,-6.55466 7.578,-6.7031 7.46081,-6.8906 7.30066,-7.03513 7.09362,-7.1406 6.8944,-7.25388 6.67174,-7.31248 6.42174,-7.31248 c -0.625,0 -1.1172,0.24219 -1.4688,0.71875 -0.35547,0.48047 -0.53125,1.1484 -0.53125,2 V 7e-5 h -2.9844 v -9.3438 h 2.9844 v 1.375 c 0.44531,-0.55078 0.92188,-0.95312 1.4219,-1.2031 0.50781,-0.25781 1.0703,-0.39062 1.6875,-0.39062 1.0703,0 1.8906,0.33594 2.4531,1 0.5625,0.65625 0.84375,1.6172 0.84375,2.875 z"
         id="path38"
         inkscape:connector-curvature="0" />
    </symbol>
    <symbol
       id="s"
       overflow="visible"
       style="overflow:visible">
      <path
         d="m 0.078125,-12.453 h 3.2344 l 3.2969,9.1875 3.2969,-9.1875 h 3.2344 L 8.515725,0 h -3.8281 z"
         id="path41"
         inkscape:connector-curvature="0" />
    </symbol>
    <symbol
       id="g"
       overflow="visible"
       style="overflow:visible">
      <path
         d="m 8.9844,-9.0469 v 2.4375 C 8.57815,-6.89065 8.16409,-7.09768 7.75,-7.2344 7.34375,-7.36721 6.92188,-7.43752 6.4844,-7.43752 c -0.83594,0 -1.4844,0.24609 -1.9531,0.73438 -0.46094,0.49219 -0.6875,1.1719 -0.6875,2.0469 0,0.86719 0.22656,1.543 0.6875,2.0312 0.46875,0.49219 1.1172,0.73438 1.9531,0.73438 0.46875,0 0.91016,-0.066406 1.3281,-0.20312 0.42578,-0.14453 0.81641,-0.35156 1.1719,-0.625 v 2.4375 c -0.46875,0.17969 -0.94531,0.30469 -1.4219,0.39062 -0.48047,0.082031 -0.96484,0.125 -1.4531,0.125 -1.6875,0 -3.0078,-0.42969 -3.9531,-1.2969 -0.94922,-0.86328 -1.4219,-2.0625 -1.4219,-3.5938 0,-1.5391 0.47266,-2.7422 1.4219,-3.6094 0.94531,-0.86328 2.2656,-1.2969 3.9531,-1.2969 0.48828,0 0.96875,0.042969 1.4375,0.125 0.47656,0.085938 0.95703,0.21484 1.4375,0.39062 z"
         id="path44"
         inkscape:connector-curvature="0" />
    </symbol>
    <symbol
       id="d"
       overflow="visible"
       style="overflow:visible">
      <path
         d="m 5.875,-7.4375 c -0.65625,0 -1.1641,0.24219 -1.5156,0.71875 -0.34375,0.48047 -0.51562,1.168 -0.51562,2.0625 0,0.89844 0.17188,1.5859 0.51562,2.0625 0.35156,0.46875 0.85938,0.70312 1.5156,0.70312 0.65622,0 1.1562,-0.23438 1.5,-0.70312 0.34375,-0.47656 0.51562,-1.1641 0.51562,-2.0625 0,-0.89453 -0.17188,-1.582 -0.51562,-2.0625 C 7.03125,-7.19531 6.53125,-7.4375 5.875,-7.4375 Z m 0,-2.125 c 1.6016,0 2.8594,0.43359 3.7656,1.2969 C 10.54685,-7.39841 11,-6.1953 11,-4.6562 11,-3.125 10.54688,-1.9257 9.6406,-1.0624 8.73435,-0.19521 7.4765,0.2345 5.875,0.2345 4.2578,0.2345 3,-0.19519 2.0938,-1.0624 1.18755,-1.92568 0.7344,-3.1249 0.7344,-4.6562 c 0,-1.5391 0.45312,-2.7422 1.3594,-3.6094 0.90625,-0.86328 2.1641,-1.2969 3.7812,-1.2969 z"
         id="path47"
         inkscape:connector-curvature="0" />
    </symbol>
    <symbol
       id="r"
       overflow="visible"
       style="overflow:visible">
      <path
         d="m 7.5781,-12.969 v 1.9531 H 5.9219 c -0.41797,0 -0.71094,0.07813 -0.875,0.23438 -0.16797,0.14844 -0.25,0.41406 -0.25,0.79688 v 0.64062 h 2.5469 v 2.1406 H 4.7969 v 7.2031 H 1.8125 v -7.2031 H 0.3281 v -2.1406 h 1.4844 v -0.64062 c 0,-1.0195 0.28125,-1.7695 0.84375,-2.25 0.57031,-0.48828 1.4531,-0.73438 2.6406,-0.73438 z"
         id="path50"
         inkscape:connector-curvature="0" />
    </symbol>
    <symbol
       id="q"
       overflow="visible"
       style="overflow:visible">
      <path
         d="m 10.094,-7.7812 c 0.375,-0.58203 0.82031,-1.0234 1.3438,-1.3281 0.51953,-0.30078 1.0938,-0.45312 1.7188,-0.45312 1.0703,0 1.8828,0.33594 2.4375,1 0.5625,0.65625 0.84375,1.6172 0.84375,2.875 V 8e-5 h -3 v -4.875 c 0.0078,-0.070312 0.01563,-0.14453 0.01563,-0.21875 v -0.32812 c 0,-0.66406 -0.10156,-1.1445 -0.29688,-1.4375 -0.1875,-0.30078 -0.5,-0.45312 -0.9375,-0.45312 -0.5625,0 -1,0.23438 -1.3125,0.70312 -0.30469,0.46875 -0.46094,1.1406 -0.46875,2.0156 v 4.5938 h -3 v -4.875 c 0,-1.0312 -0.09375,-1.6914 -0.28125,-1.9844 -0.17969,-0.30078 -0.49219,-0.45312 -0.9375,-0.45312 -0.57422,0 -1.0156,0.23438 -1.3281,0.70312 -0.3125,0.46874 -0.46875,1.1406 -0.46875,2.0156 v 4.5938 h -3 v -9.3438 h 3 v 1.375 c 0.36328,-0.53125 0.78125,-0.92578 1.25,-1.1875 0.47656,-0.26953 1.0039,-0.40625 1.5781,-0.40625 0.64453,0 1.2109,0.15625 1.7031,0.46875 0.5,0.3125 0.87891,0.75 1.1406,1.3125 z"
         id="path53"
         inkscape:connector-curvature="0" />
    </symbol>
    <symbol
       id="p"
       overflow="visible"
       style="overflow:visible">
      <path
         d="M 10.828,-5.6875 V 0 h -3 V -4.3438 C 7.828,-5.1563 7.804563,-5.711 7.7655,-6.0157 7.73425,-6.3282 7.67175,-6.55476 7.578,-6.7032 7.46081,-6.8907 7.30066,-7.03523 7.09362,-7.1407 6.8944,-7.25398 6.67174,-7.31258 6.42174,-7.31258 c -0.625,0 -1.1172,0.24219 -1.4688,0.71875 -0.35547,0.48047 -0.53125,1.1484 -0.53125,2 V -3e-5 h -2.9844 v -12.969 h 2.9844 v 5 c 0.44531,-0.55078 0.92188,-0.95312 1.4219,-1.2031 0.50781,-0.25781 1.0703,-0.39062 1.6875,-0.39062 1.0703,0 1.8906,0.33594 2.4531,1 0.5625,0.65625 0.84375,1.6172 0.84375,2.875 z"
         id="path56"
         inkscape:connector-curvature="0" />
    </symbol>
    <symbol
       id="o"
       overflow="visible"
       style="overflow:visible">
      <path
         d="m 1.5625,-12.453 h 3.5938 l 4.5312,8.5469 v -8.5469 h 3.0312 V 0 H 9.1406 L 4.6094,-8.5469 V 0 H 1.5625 Z"
         id="path59"
         inkscape:connector-curvature="0" />
    </symbol>
    <symbol
       id="n"
       overflow="visible"
       style="overflow:visible">
      <path
         d="m 1.3281,-3.6406 v -5.7031 h 3.0156 v 0.9375 c 0,0.51172 -0.00781,1.1484 -0.015625,1.9062 -0.011719,0.76172 -0.015625,1.2734 -0.015625,1.5312 0,0.75 0.019531,1.293 0.0625,1.625 0.039062,0.32422 0.10938,0.5625 0.20312,0.71875 0.125,0.19922 0.28516,0.35156 0.48438,0.45312 0.19531,0.10547 0.42188,0.15625 0.67188,0.15625 0.625,0 1.1133,-0.23828 1.4688,-0.71875 0.35156,-0.47656 0.53125,-1.1445 0.53125,-2 v -4.6094 h 2.9844 V -3e-5 h -2.9844 v -1.3438 c -0.44922,0.54297 -0.92969,0.94531 -1.4375,1.2031 -0.5,0.25 -1.0547,0.375 -1.6562,0.375 -1.0742,0 -1.8984,-0.32812 -2.4688,-0.98438 -0.5625,-0.66406 -0.84375,-1.6289 -0.84375,-2.8906 z"
         id="path62"
         inkscape:connector-curvature="0" />
    </symbol>
    <symbol
       id="m"
       overflow="visible"
       style="overflow:visible">
      <path
         d="m 1.5625,-12.453 h 5.3281 c 1.582,0 2.7969,0.35547 3.6406,1.0625 0.85156,0.69922 1.2812,1.6992 1.2812,3 0,1.3125 -0.42969,2.3242 -1.2812,3.0312 -0.84375,0.69922 -2.0586,1.0469 -3.6406,1.0469 H 4.7812 V 1e-4 H 1.5624 Z m 3.2188,2.3281 v 3.4844 h 1.7656 c 0.625,0 1.1016,-0.14844 1.4375,-0.45312 0.34375,-0.3125 0.51562,-0.74219 0.51562,-1.2969 0,-0.55078 -0.17188,-0.97656 -0.51562,-1.2812 -0.33594,-0.30078 -0.8125,-0.45312 -1.4375,-0.45312 z"
         id="path65"
         inkscape:connector-curvature="0" />
    </symbol>
    <symbol
       id="l"
       overflow="visible"
       style="overflow:visible">
      <path
         d="m 1.4375,-9.3438 h 2.9844 v 9.1719 c 0,1.25 -0.30469,2.2031 -0.90625,2.8594 -0.59375,0.66406 -1.4648,1 -2.6094,1 h -1.4688 V 1.7187 h 0.51562 c 0.5625,0 0.94531,-0.13281 1.1562,-0.39062 0.21875,-0.25 0.32812,-0.75 0.32812,-1.5 z m 0,-3.625 h 2.9844 v 2.4219 H 1.4375 Z"
         id="path68"
         inkscape:connector-curvature="0" />
    </symbol>
  </defs>
  <g
     id="g161"
     transform="translate(-127.50478,-2.8027464)">
    <path
       d="m 215.14,337.98 c 9.6641,25.535 53.125,33.52 76.34,12.223 5.2656,42.051 71.773,48.824 88.188,10.336 27.523,27.098 82.523,17.551 104.92,-19.527 48.523,5.8047 81.953,-27.871 67.328,-70.176 31.012,-26.574 31.355,-78.727 -4.1094,-101.45 19.152,-39.57 -19.191,-87.797 -58.508,-74.625 -3.1445,-49.863 -36.727,-72.117 -85.227,-61.293 -21.883,-43 -74.516,-38.562 -97.566,-0.49219 -48.992,-16.242 -98.559,13.254 -98.172,62.41 -39.195,-7.2266 -68.504,38.551 -43.465,71.07 -37.551,10.73 -49.594,57.559 -23.184,85.285 -35.121,58.016 15.742,108.71 73.453,86.238 z"
       id="path73"
       inkscape:connector-curvature="0"
       style="fill-rule:evenodd" />
    <path
       d="m 332.76,169.21 27.117,12.379 6.875,77.746 34.066,-29.082 -5.1211,-71.324 4.582,-0.32422 11.297,61.875 40.414,-35.035 15.715,-0.65625 -8.6836,9.3477 64.324,-4.1094 -5.5625,5.7461 -67.289,7.5469 -44.844,48.293 76.781,30.715 2.6133,9.8203 -93.059,-25.816 -21.773,23.445 28.953,271.93 h -80.164 l 9.8906,-301.14 -16.75,-24.141 -88.285,-34.449 -2.6172,-8.1875 75.867,20.977 -50.664,-73.016 12.527,-1.0312 30.465,35.094 1.1914,-40.285 3.9766,-0.69922 5.1953,53.566 30.09,36.543 z"
       id="path75"
       inkscape:connector-curvature="0"
       style="fill-rule:evenodd" />
  </g>
</svg>
